<mxfile host="app.diagrams.net" modified="2023-09-17T06:23:46.992Z" agent="Mozilla/5.0 (Windows NT 10.0; Win64; x64) AppleWebKit/537.36 (KHTML, like Gecko) Chrome/116.0.0.0 Safari/537.36 Edg/116.0.1938.81" etag="YXv8no2XsKCu3-xy640G" version="21.7.5" type="google">
  <diagram id="R2lEEEUBdFMjLlhIrx00" name="Page-1">
    <mxGraphModel grid="1" page="1" gridSize="10" guides="1" tooltips="1" connect="1" arrows="1" fold="1" pageScale="1" pageWidth="850" pageHeight="1100" math="0" shadow="0" extFonts="Permanent Marker^https://fonts.googleapis.com/css?family=Permanent+Marker">
      <root>
        <mxCell id="0" />
        <mxCell id="1" parent="0" />
        <mxCell id="1o4sWq2RBQfBLqTfchI7-1" value="Passenger" style="rounded=0;whiteSpace=wrap;html=1;" vertex="1" parent="1">
          <mxGeometry x="200" y="250" width="120" height="60" as="geometry" />
        </mxCell>
        <mxCell id="1o4sWq2RBQfBLqTfchI7-2" value="Bus" style="rounded=0;whiteSpace=wrap;html=1;" vertex="1" parent="1">
          <mxGeometry x="980" y="240" width="120" height="60" as="geometry" />
        </mxCell>
        <mxCell id="1o4sWq2RBQfBLqTfchI7-3" value="Sheduler" style="rounded=0;whiteSpace=wrap;html=1;" vertex="1" parent="1">
          <mxGeometry x="190" y="1070" width="120" height="60" as="geometry" />
        </mxCell>
        <mxCell id="1o4sWq2RBQfBLqTfchI7-4" value="Booking" style="rounded=0;whiteSpace=wrap;html=1;" vertex="1" parent="1">
          <mxGeometry x="550" y="250" width="120" height="60" as="geometry" />
        </mxCell>
        <mxCell id="1o4sWq2RBQfBLqTfchI7-5" value="Conductor" style="rounded=0;whiteSpace=wrap;html=1;" vertex="1" parent="1">
          <mxGeometry x="572.5" y="-200" width="120" height="60" as="geometry" />
        </mxCell>
        <mxCell id="1o4sWq2RBQfBLqTfchI7-6" value="&lt;u&gt;PassengerID&amp;nbsp;&lt;/u&gt;" style="ellipse;whiteSpace=wrap;html=1;" vertex="1" parent="1">
          <mxGeometry x="20" y="50" width="120" height="80" as="geometry" />
        </mxCell>
        <mxCell id="1o4sWq2RBQfBLqTfchI7-7" value="Name" style="ellipse;whiteSpace=wrap;html=1;" vertex="1" parent="1">
          <mxGeometry x="170" y="40" width="120" height="80" as="geometry" />
        </mxCell>
        <mxCell id="1o4sWq2RBQfBLqTfchI7-8" value="Contact Details" style="ellipse;whiteSpace=wrap;html=1;" vertex="1" parent="1">
          <mxGeometry x="195" y="390" width="120" height="80" as="geometry" />
        </mxCell>
        <mxCell id="1o4sWq2RBQfBLqTfchI7-10" value="Password" style="ellipse;whiteSpace=wrap;html=1;" vertex="1" parent="1">
          <mxGeometry x="30" y="360" width="120" height="80" as="geometry" />
        </mxCell>
        <mxCell id="1o4sWq2RBQfBLqTfchI7-11" value="Username" style="ellipse;whiteSpace=wrap;html=1;" vertex="1" parent="1">
          <mxGeometry x="10" y="230" width="120" height="80" as="geometry" />
        </mxCell>
        <mxCell id="1o4sWq2RBQfBLqTfchI7-13" value="" style="endArrow=none;html=1;rounded=0;entryX=1;entryY=1;entryDx=0;entryDy=0;exitX=0;exitY=0;exitDx=0;exitDy=0;" edge="1" parent="1" source="1o4sWq2RBQfBLqTfchI7-1" target="1o4sWq2RBQfBLqTfchI7-6">
          <mxGeometry width="50" height="50" relative="1" as="geometry">
            <mxPoint x="400" y="410" as="sourcePoint" />
            <mxPoint x="450" y="360" as="targetPoint" />
          </mxGeometry>
        </mxCell>
        <mxCell id="1o4sWq2RBQfBLqTfchI7-14" value="" style="endArrow=none;html=1;rounded=0;entryX=0.5;entryY=1;entryDx=0;entryDy=0;exitX=0.25;exitY=0;exitDx=0;exitDy=0;" edge="1" parent="1" source="1o4sWq2RBQfBLqTfchI7-1" target="1o4sWq2RBQfBLqTfchI7-7">
          <mxGeometry width="50" height="50" relative="1" as="geometry">
            <mxPoint x="218" y="260" as="sourcePoint" />
            <mxPoint x="208" y="119" as="targetPoint" />
          </mxGeometry>
        </mxCell>
        <mxCell id="1o4sWq2RBQfBLqTfchI7-15" value="" style="endArrow=none;html=1;rounded=0;exitX=0.5;exitY=1;exitDx=0;exitDy=0;" edge="1" parent="1" source="1o4sWq2RBQfBLqTfchI7-1" target="1o4sWq2RBQfBLqTfchI7-8">
          <mxGeometry width="50" height="50" relative="1" as="geometry">
            <mxPoint x="259" y="260" as="sourcePoint" />
            <mxPoint x="318" y="148" as="targetPoint" />
          </mxGeometry>
        </mxCell>
        <mxCell id="1o4sWq2RBQfBLqTfchI7-17" value="" style="endArrow=none;html=1;rounded=0;entryX=1;entryY=0;entryDx=0;entryDy=0;exitX=0;exitY=1;exitDx=0;exitDy=0;" edge="1" parent="1" source="1o4sWq2RBQfBLqTfchI7-1" target="1o4sWq2RBQfBLqTfchI7-10">
          <mxGeometry width="50" height="50" relative="1" as="geometry">
            <mxPoint x="280" y="305" as="sourcePoint" />
            <mxPoint x="440" y="350" as="targetPoint" />
          </mxGeometry>
        </mxCell>
        <mxCell id="1o4sWq2RBQfBLqTfchI7-18" value="" style="endArrow=none;html=1;rounded=0;entryX=1;entryY=0.5;entryDx=0;entryDy=0;exitX=0;exitY=0.5;exitDx=0;exitDy=0;" edge="1" parent="1" source="1o4sWq2RBQfBLqTfchI7-1" target="1o4sWq2RBQfBLqTfchI7-11">
          <mxGeometry width="50" height="50" relative="1" as="geometry">
            <mxPoint x="190" y="280" as="sourcePoint" />
            <mxPoint x="350" y="440" as="targetPoint" />
          </mxGeometry>
        </mxCell>
        <mxCell id="1o4sWq2RBQfBLqTfchI7-19" value="BusID&amp;nbsp;" style="ellipse;whiteSpace=wrap;html=1;" vertex="1" parent="1">
          <mxGeometry x="1100" y="110" width="120" height="80" as="geometry" />
        </mxCell>
        <mxCell id="1o4sWq2RBQfBLqTfchI7-20" value="License Plate Number" style="ellipse;whiteSpace=wrap;html=1;" vertex="1" parent="1">
          <mxGeometry x="950" y="70" width="120" height="80" as="geometry" />
        </mxCell>
        <mxCell id="1o4sWq2RBQfBLqTfchI7-21" value="Capacity" style="ellipse;whiteSpace=wrap;html=1;" vertex="1" parent="1">
          <mxGeometry x="1155" y="380" width="120" height="80" as="geometry" />
        </mxCell>
        <mxCell id="1o4sWq2RBQfBLqTfchI7-22" value="Model" style="ellipse;whiteSpace=wrap;html=1;" vertex="1" parent="1">
          <mxGeometry x="1170" y="220" width="120" height="80" as="geometry" />
        </mxCell>
        <mxCell id="1o4sWq2RBQfBLqTfchI7-23" value="Make" style="ellipse;whiteSpace=wrap;html=1;" vertex="1" parent="1">
          <mxGeometry x="872.5" y="370" width="120" height="80" as="geometry" />
        </mxCell>
        <mxCell id="1o4sWq2RBQfBLqTfchI7-24" value="" style="endArrow=none;html=1;rounded=0;entryX=0.75;entryY=0;entryDx=0;entryDy=0;exitX=0;exitY=1;exitDx=0;exitDy=0;" edge="1" parent="1" source="1o4sWq2RBQfBLqTfchI7-19" target="1o4sWq2RBQfBLqTfchI7-2">
          <mxGeometry width="50" height="50" relative="1" as="geometry">
            <mxPoint x="220" y="475" as="sourcePoint" />
            <mxPoint x="410" y="540" as="targetPoint" />
          </mxGeometry>
        </mxCell>
        <mxCell id="1o4sWq2RBQfBLqTfchI7-25" value="" style="endArrow=none;html=1;rounded=0;entryX=0.5;entryY=0;entryDx=0;entryDy=0;" edge="1" parent="1" source="1o4sWq2RBQfBLqTfchI7-20" target="1o4sWq2RBQfBLqTfchI7-2">
          <mxGeometry width="50" height="50" relative="1" as="geometry">
            <mxPoint x="810" y="540" as="sourcePoint" />
            <mxPoint x="810" y="690" as="targetPoint" />
          </mxGeometry>
        </mxCell>
        <mxCell id="1o4sWq2RBQfBLqTfchI7-26" value="" style="endArrow=none;html=1;rounded=0;entryX=1;entryY=0.75;entryDx=0;entryDy=0;exitX=0;exitY=0;exitDx=0;exitDy=0;" edge="1" parent="1" source="1o4sWq2RBQfBLqTfchI7-21" target="1o4sWq2RBQfBLqTfchI7-2">
          <mxGeometry width="50" height="50" relative="1" as="geometry">
            <mxPoint x="681" y="619" as="sourcePoint" />
            <mxPoint x="780" y="690" as="targetPoint" />
          </mxGeometry>
        </mxCell>
        <mxCell id="1o4sWq2RBQfBLqTfchI7-27" value="" style="endArrow=none;html=1;rounded=0;entryX=0.99;entryY=0.374;entryDx=0;entryDy=0;entryPerimeter=0;" edge="1" parent="1" source="1o4sWq2RBQfBLqTfchI7-22" target="1o4sWq2RBQfBLqTfchI7-2">
          <mxGeometry width="50" height="50" relative="1" as="geometry">
            <mxPoint x="600" y="730" as="sourcePoint" />
            <mxPoint x="720" y="720" as="targetPoint" />
          </mxGeometry>
        </mxCell>
        <mxCell id="1o4sWq2RBQfBLqTfchI7-28" value="" style="endArrow=none;html=1;rounded=0;entryX=0.25;entryY=1;entryDx=0;entryDy=0;" edge="1" parent="1" source="1o4sWq2RBQfBLqTfchI7-23" target="1o4sWq2RBQfBLqTfchI7-2">
          <mxGeometry width="50" height="50" relative="1" as="geometry">
            <mxPoint x="632" y="842" as="sourcePoint" />
            <mxPoint x="720" y="750" as="targetPoint" />
          </mxGeometry>
        </mxCell>
        <mxCell id="1o4sWq2RBQfBLqTfchI7-29" value="Name" style="ellipse;whiteSpace=wrap;html=1;" vertex="1" parent="1">
          <mxGeometry x="180" y="1200" width="120" height="80" as="geometry" />
        </mxCell>
        <mxCell id="1o4sWq2RBQfBLqTfchI7-30" value="SchedulerID" style="ellipse;whiteSpace=wrap;html=1;" vertex="1" parent="1">
          <mxGeometry x="370" y="950" width="120" height="80" as="geometry" />
        </mxCell>
        <mxCell id="1o4sWq2RBQfBLqTfchI7-32" value="Contact Details" style="ellipse;whiteSpace=wrap;html=1;" vertex="1" parent="1">
          <mxGeometry x="10" y="1060" width="120" height="80" as="geometry" />
        </mxCell>
        <mxCell id="1o4sWq2RBQfBLqTfchI7-34" value="" style="endArrow=none;html=1;rounded=0;entryX=0.5;entryY=0;entryDx=0;entryDy=0;exitX=0.425;exitY=0.976;exitDx=0;exitDy=0;exitPerimeter=0;" edge="1" parent="1" source="1o4sWq2RBQfBLqTfchI7-3" target="1o4sWq2RBQfBLqTfchI7-29">
          <mxGeometry width="50" height="50" relative="1" as="geometry">
            <mxPoint x="111" y="259" as="sourcePoint" />
            <mxPoint x="150" y="420" as="targetPoint" />
            <Array as="points" />
          </mxGeometry>
        </mxCell>
        <mxCell id="1o4sWq2RBQfBLqTfchI7-35" value="" style="endArrow=none;html=1;rounded=0;exitX=1;exitY=0;exitDx=0;exitDy=0;" edge="1" parent="1" source="1o4sWq2RBQfBLqTfchI7-3" target="1o4sWq2RBQfBLqTfchI7-30">
          <mxGeometry width="50" height="50" relative="1" as="geometry">
            <mxPoint x="310" y="750" as="sourcePoint" />
            <mxPoint x="110" y="640" as="targetPoint" />
          </mxGeometry>
        </mxCell>
        <mxCell id="1o4sWq2RBQfBLqTfchI7-37" value="" style="endArrow=none;html=1;rounded=0;exitX=0;exitY=0.5;exitDx=0;exitDy=0;" edge="1" parent="1" source="1o4sWq2RBQfBLqTfchI7-3" target="1o4sWq2RBQfBLqTfchI7-32">
          <mxGeometry width="50" height="50" relative="1" as="geometry">
            <mxPoint x="180" y="760" as="sourcePoint" />
            <mxPoint x="280" y="770" as="targetPoint" />
          </mxGeometry>
        </mxCell>
        <mxCell id="1o4sWq2RBQfBLqTfchI7-39" value="&lt;u&gt;BookingID&amp;nbsp;&lt;/u&gt;" style="ellipse;whiteSpace=wrap;html=1;" vertex="1" parent="1">
          <mxGeometry x="785" y="130" width="120" height="80" as="geometry" />
        </mxCell>
        <mxCell id="1o4sWq2RBQfBLqTfchI7-40" value="" style="endArrow=none;html=1;rounded=0;exitX=0;exitY=1;exitDx=0;exitDy=0;entryX=1;entryY=0;entryDx=0;entryDy=0;" edge="1" parent="1" source="1o4sWq2RBQfBLqTfchI7-39" target="1o4sWq2RBQfBLqTfchI7-4">
          <mxGeometry width="50" height="50" relative="1" as="geometry">
            <mxPoint x="180" y="790" as="sourcePoint" />
            <mxPoint x="247" y="847" as="targetPoint" />
          </mxGeometry>
        </mxCell>
        <mxCell id="1o4sWq2RBQfBLqTfchI7-41" value="PassengerID&amp;nbsp;" style="ellipse;whiteSpace=wrap;html=1;" vertex="1" parent="1">
          <mxGeometry x="692.5" y="50" width="120" height="80" as="geometry" />
        </mxCell>
        <mxCell id="1o4sWq2RBQfBLqTfchI7-42" value="" style="endArrow=none;html=1;rounded=0;exitX=0.341;exitY=1.024;exitDx=0;exitDy=0;entryX=0.75;entryY=0;entryDx=0;entryDy=0;exitPerimeter=0;" edge="1" parent="1" source="1o4sWq2RBQfBLqTfchI7-41" target="1o4sWq2RBQfBLqTfchI7-4">
          <mxGeometry width="50" height="50" relative="1" as="geometry">
            <mxPoint x="730" y="830" as="sourcePoint" />
            <mxPoint x="680" y="940" as="targetPoint" />
          </mxGeometry>
        </mxCell>
        <mxCell id="1o4sWq2RBQfBLqTfchI7-43" value="BusID" style="ellipse;whiteSpace=wrap;html=1;" vertex="1" parent="1">
          <mxGeometry x="440" y="40" width="120" height="80" as="geometry" />
        </mxCell>
        <mxCell id="1o4sWq2RBQfBLqTfchI7-44" value="" style="endArrow=none;html=1;rounded=0;exitX=0.5;exitY=1;exitDx=0;exitDy=0;entryX=0.25;entryY=0;entryDx=0;entryDy=0;" edge="1" parent="1" source="1o4sWq2RBQfBLqTfchI7-43" target="1o4sWq2RBQfBLqTfchI7-4">
          <mxGeometry width="50" height="50" relative="1" as="geometry">
            <mxPoint x="592" y="858" as="sourcePoint" />
            <mxPoint x="690" y="950" as="targetPoint" />
          </mxGeometry>
        </mxCell>
        <mxCell id="1o4sWq2RBQfBLqTfchI7-45" value="QRcodeID&amp;nbsp;" style="ellipse;whiteSpace=wrap;html=1;" vertex="1" parent="1">
          <mxGeometry x="730" y="360" width="120" height="80" as="geometry" />
        </mxCell>
        <mxCell id="1o4sWq2RBQfBLqTfchI7-46" value="" style="endArrow=none;html=1;rounded=0;exitX=0;exitY=0;exitDx=0;exitDy=0;entryX=1;entryY=1;entryDx=0;entryDy=0;" edge="1" parent="1" source="1o4sWq2RBQfBLqTfchI7-45" target="1o4sWq2RBQfBLqTfchI7-4">
          <mxGeometry width="50" height="50" relative="1" as="geometry">
            <mxPoint x="511" y="939" as="sourcePoint" />
            <mxPoint x="630" y="975" as="targetPoint" />
          </mxGeometry>
        </mxCell>
        <mxCell id="1o4sWq2RBQfBLqTfchI7-47" value="Seat Number" style="ellipse;whiteSpace=wrap;html=1;" vertex="1" parent="1">
          <mxGeometry x="385" y="360" width="120" height="80" as="geometry" />
        </mxCell>
        <mxCell id="1o4sWq2RBQfBLqTfchI7-48" value="" style="endArrow=none;html=1;rounded=0;exitX=1;exitY=0;exitDx=0;exitDy=0;entryX=0.083;entryY=1;entryDx=0;entryDy=0;entryPerimeter=0;" edge="1" parent="1" source="1o4sWq2RBQfBLqTfchI7-47" target="1o4sWq2RBQfBLqTfchI7-4">
          <mxGeometry width="50" height="50" relative="1" as="geometry">
            <mxPoint x="503" y="1040" as="sourcePoint" />
            <mxPoint x="627" y="1014" as="targetPoint" />
          </mxGeometry>
        </mxCell>
        <mxCell id="1o4sWq2RBQfBLqTfchI7-49" value="Departure Time" style="ellipse;whiteSpace=wrap;html=1;" vertex="1" parent="1">
          <mxGeometry x="460" y="450" width="120" height="80" as="geometry" />
        </mxCell>
        <mxCell id="1o4sWq2RBQfBLqTfchI7-50" value="" style="endArrow=none;html=1;rounded=0;exitX=0.733;exitY=0.053;exitDx=0;exitDy=0;entryX=0.5;entryY=1;entryDx=0;entryDy=0;exitPerimeter=0;" edge="1" parent="1" source="1o4sWq2RBQfBLqTfchI7-49" target="1o4sWq2RBQfBLqTfchI7-4">
          <mxGeometry width="50" height="50" relative="1" as="geometry">
            <mxPoint x="512" y="1082" as="sourcePoint" />
            <mxPoint x="710" y="1020" as="targetPoint" />
          </mxGeometry>
        </mxCell>
        <mxCell id="1o4sWq2RBQfBLqTfchI7-51" value="Status (Confirmed,&amp;nbsp; Cancelled)" style="ellipse;whiteSpace=wrap;html=1;" vertex="1" parent="1">
          <mxGeometry x="660" y="450" width="120" height="80" as="geometry" />
        </mxCell>
        <mxCell id="1o4sWq2RBQfBLqTfchI7-52" value="" style="endArrow=none;html=1;rounded=0;exitX=0.212;exitY=0.1;exitDx=0;exitDy=0;entryX=0.647;entryY=1.022;entryDx=0;entryDy=0;entryPerimeter=0;exitPerimeter=0;" edge="1" parent="1" source="1o4sWq2RBQfBLqTfchI7-51" target="1o4sWq2RBQfBLqTfchI7-4">
          <mxGeometry width="50" height="50" relative="1" as="geometry">
            <mxPoint x="800" y="1100" as="sourcePoint" />
            <mxPoint x="760" y="1010" as="targetPoint" />
          </mxGeometry>
        </mxCell>
        <mxCell id="1o4sWq2RBQfBLqTfchI7-53" value="Status (Confirmed, Pending, Cancelled)" style="ellipse;whiteSpace=wrap;html=1;" vertex="1" parent="1">
          <mxGeometry x="380" y="-210" width="120" height="80" as="geometry" />
        </mxCell>
        <mxCell id="1o4sWq2RBQfBLqTfchI7-54" value="Name" style="ellipse;whiteSpace=wrap;html=1;" vertex="1" parent="1">
          <mxGeometry x="490" y="-340" width="120" height="80" as="geometry" />
        </mxCell>
        <mxCell id="1o4sWq2RBQfBLqTfchI7-55" value="&lt;u&gt;Employee Number&lt;/u&gt;" style="ellipse;whiteSpace=wrap;html=1;" vertex="1" parent="1">
          <mxGeometry x="670" y="-340" width="120" height="80" as="geometry" />
        </mxCell>
        <mxCell id="1o4sWq2RBQfBLqTfchI7-56" value="Contact Information" style="ellipse;whiteSpace=wrap;html=1;" vertex="1" parent="1">
          <mxGeometry x="740" y="-220" width="120" height="80" as="geometry" />
        </mxCell>
        <mxCell id="1o4sWq2RBQfBLqTfchI7-57" value="" style="endArrow=none;html=1;rounded=0;entryX=0;entryY=0.5;entryDx=0;entryDy=0;" edge="1" parent="1" source="1o4sWq2RBQfBLqTfchI7-53" target="1o4sWq2RBQfBLqTfchI7-5">
          <mxGeometry width="50" height="50" relative="1" as="geometry">
            <mxPoint x="114.5" y="-1227" as="sourcePoint" />
            <mxPoint x="222.5" y="-1095" as="targetPoint" />
          </mxGeometry>
        </mxCell>
        <mxCell id="1o4sWq2RBQfBLqTfchI7-58" value="" style="endArrow=none;html=1;rounded=0;exitX=0.695;exitY=1.013;exitDx=0;exitDy=0;entryX=0.147;entryY=-0.106;entryDx=0;entryDy=0;entryPerimeter=0;exitPerimeter=0;" edge="1" parent="1" source="1o4sWq2RBQfBLqTfchI7-54" target="1o4sWq2RBQfBLqTfchI7-5">
          <mxGeometry width="50" height="50" relative="1" as="geometry">
            <mxPoint x="222.5" y="-1225" as="sourcePoint" />
            <mxPoint x="252.5" y="-1095" as="targetPoint" />
          </mxGeometry>
        </mxCell>
        <mxCell id="1o4sWq2RBQfBLqTfchI7-59" value="" style="endArrow=none;html=1;rounded=0;exitX=0.295;exitY=0.99;exitDx=0;exitDy=0;entryX=0.75;entryY=0;entryDx=0;entryDy=0;exitPerimeter=0;" edge="1" parent="1" source="1o4sWq2RBQfBLqTfchI7-55" target="1o4sWq2RBQfBLqTfchI7-5">
          <mxGeometry width="50" height="50" relative="1" as="geometry">
            <mxPoint x="-319.5" y="-887" as="sourcePoint" />
            <mxPoint x="-404.5" y="-817" as="targetPoint" />
          </mxGeometry>
        </mxCell>
        <mxCell id="1o4sWq2RBQfBLqTfchI7-60" value="" style="endArrow=none;html=1;rounded=0;entryX=1;entryY=0.5;entryDx=0;entryDy=0;" edge="1" parent="1" source="1o4sWq2RBQfBLqTfchI7-56" target="1o4sWq2RBQfBLqTfchI7-5">
          <mxGeometry width="50" height="50" relative="1" as="geometry">
            <mxPoint x="-277.5" y="-790" as="sourcePoint" />
            <mxPoint x="-387.5" y="-785" as="targetPoint" />
          </mxGeometry>
        </mxCell>
        <mxCell id="1o4sWq2RBQfBLqTfchI7-61" value="Makes" style="rhombus;whiteSpace=wrap;html=1;" vertex="1" parent="1">
          <mxGeometry x="385" y="240" width="80" height="80" as="geometry" />
        </mxCell>
        <mxCell id="1o4sWq2RBQfBLqTfchI7-62" value="" style="endArrow=none;html=1;rounded=0;entryX=0;entryY=0.5;entryDx=0;entryDy=0;exitX=1;exitY=0.5;exitDx=0;exitDy=0;" edge="1" parent="1" source="1o4sWq2RBQfBLqTfchI7-1" target="1o4sWq2RBQfBLqTfchI7-61">
          <mxGeometry width="50" height="50" relative="1" as="geometry">
            <mxPoint x="260" y="240" as="sourcePoint" />
            <mxPoint x="358" y="118" as="targetPoint" />
          </mxGeometry>
        </mxCell>
        <mxCell id="1o4sWq2RBQfBLqTfchI7-63" value="" style="endArrow=none;html=1;rounded=0;entryX=0;entryY=0.5;entryDx=0;entryDy=0;exitX=1;exitY=0.5;exitDx=0;exitDy=0;" edge="1" parent="1" source="1o4sWq2RBQfBLqTfchI7-61" target="1o4sWq2RBQfBLqTfchI7-4">
          <mxGeometry width="50" height="50" relative="1" as="geometry">
            <mxPoint x="320" y="270" as="sourcePoint" />
            <mxPoint x="400" y="270" as="targetPoint" />
          </mxGeometry>
        </mxCell>
        <mxCell id="1o4sWq2RBQfBLqTfchI7-64" value="1" style="text;html=1;align=center;verticalAlign=middle;resizable=0;points=[];autosize=1;strokeColor=none;fillColor=none;" vertex="1" parent="1">
          <mxGeometry x="315" y="255" width="30" height="30" as="geometry" />
        </mxCell>
        <mxCell id="1o4sWq2RBQfBLqTfchI7-65" value="0..N" style="text;html=1;align=center;verticalAlign=middle;resizable=0;points=[];autosize=1;strokeColor=none;fillColor=none;" vertex="1" parent="1">
          <mxGeometry x="510" y="255" width="50" height="30" as="geometry" />
        </mxCell>
        <mxCell id="1o4sWq2RBQfBLqTfchI7-77" value="Owner" style="rounded=0;whiteSpace=wrap;html=1;" vertex="1" parent="1">
          <mxGeometry x="1035" y="690" width="120" height="60" as="geometry" />
        </mxCell>
        <mxCell id="1o4sWq2RBQfBLqTfchI7-78" value="Administrator" style="rounded=0;whiteSpace=wrap;html=1;" vertex="1" parent="1">
          <mxGeometry x="190" y="690" width="120" height="60" as="geometry" />
        </mxCell>
        <mxCell id="1o4sWq2RBQfBLqTfchI7-79" value="QR code" style="rounded=0;whiteSpace=wrap;html=1;" vertex="1" parent="1">
          <mxGeometry x="550" y="710" width="120" height="60" as="geometry" />
        </mxCell>
        <mxCell id="1o4sWq2RBQfBLqTfchI7-80" value="Ticket Price" style="ellipse;whiteSpace=wrap;html=1;" vertex="1" parent="1">
          <mxGeometry x="340" y="130" width="120" height="80" as="geometry" />
        </mxCell>
        <mxCell id="1o4sWq2RBQfBLqTfchI7-81" value="" style="endArrow=none;html=1;rounded=0;entryX=0;entryY=0;entryDx=0;entryDy=0;" edge="1" parent="1" source="1o4sWq2RBQfBLqTfchI7-80" target="1o4sWq2RBQfBLqTfchI7-4">
          <mxGeometry width="50" height="50" relative="1" as="geometry">
            <mxPoint x="535" y="120" as="sourcePoint" />
            <mxPoint x="590" y="260" as="targetPoint" />
          </mxGeometry>
        </mxCell>
        <mxCell id="1o4sWq2RBQfBLqTfchI7-82" value="&lt;u&gt;OwnerID&amp;nbsp;&lt;/u&gt;" style="ellipse;whiteSpace=wrap;html=1;" vertex="1" parent="1">
          <mxGeometry x="855" y="570" width="120" height="80" as="geometry" />
        </mxCell>
        <mxCell id="1o4sWq2RBQfBLqTfchI7-83" value="Name" style="ellipse;whiteSpace=wrap;html=1;" vertex="1" parent="1">
          <mxGeometry x="1220" y="560" width="120" height="80" as="geometry" />
        </mxCell>
        <mxCell id="1o4sWq2RBQfBLqTfchI7-84" value="Contact Details" style="ellipse;whiteSpace=wrap;html=1;" vertex="1" parent="1">
          <mxGeometry x="1265" y="700" width="120" height="80" as="geometry" />
        </mxCell>
        <mxCell id="1o4sWq2RBQfBLqTfchI7-85" value="Bank Account Number" style="ellipse;whiteSpace=wrap;html=1;" vertex="1" parent="1">
          <mxGeometry x="1205" y="820" width="120" height="80" as="geometry" />
        </mxCell>
        <mxCell id="1o4sWq2RBQfBLqTfchI7-86" value="Routing Number" style="ellipse;whiteSpace=wrap;html=1;" vertex="1" parent="1">
          <mxGeometry x="1035" y="840" width="120" height="80" as="geometry" />
        </mxCell>
        <mxCell id="1o4sWq2RBQfBLqTfchI7-87" value="Username" style="ellipse;whiteSpace=wrap;html=1;" vertex="1" parent="1">
          <mxGeometry x="885" y="800" width="120" height="80" as="geometry" />
        </mxCell>
        <mxCell id="1o4sWq2RBQfBLqTfchI7-88" value="Password" style="ellipse;whiteSpace=wrap;html=1;" vertex="1" parent="1">
          <mxGeometry x="820" y="700" width="120" height="80" as="geometry" />
        </mxCell>
        <mxCell id="1o4sWq2RBQfBLqTfchI7-89" value="" style="endArrow=none;html=1;rounded=0;exitX=0.208;exitY=0.875;exitDx=0;exitDy=0;entryX=1;entryY=0;entryDx=0;entryDy=0;exitPerimeter=0;" edge="1" parent="1" source="1o4sWq2RBQfBLqTfchI7-83" target="1o4sWq2RBQfBLqTfchI7-77">
          <mxGeometry width="50" height="50" relative="1" as="geometry">
            <mxPoint x="1222.5735931288068" y="628.2842712474617" as="sourcePoint" />
            <mxPoint x="1225" y="320" as="targetPoint" />
          </mxGeometry>
        </mxCell>
        <mxCell id="1o4sWq2RBQfBLqTfchI7-90" value="" style="endArrow=none;html=1;rounded=0;exitX=0;exitY=0.5;exitDx=0;exitDy=0;entryX=1;entryY=0.5;entryDx=0;entryDy=0;" edge="1" parent="1" source="1o4sWq2RBQfBLqTfchI7-84" target="1o4sWq2RBQfBLqTfchI7-77">
          <mxGeometry width="50" height="50" relative="1" as="geometry">
            <mxPoint x="1222" y="628" as="sourcePoint" />
            <mxPoint x="1155" y="705" as="targetPoint" />
          </mxGeometry>
        </mxCell>
        <mxCell id="1o4sWq2RBQfBLqTfchI7-91" value="" style="endArrow=none;html=1;rounded=0;exitX=0;exitY=0;exitDx=0;exitDy=0;entryX=1;entryY=1;entryDx=0;entryDy=0;" edge="1" parent="1" source="1o4sWq2RBQfBLqTfchI7-85" target="1o4sWq2RBQfBLqTfchI7-77">
          <mxGeometry width="50" height="50" relative="1" as="geometry">
            <mxPoint x="1295" y="720" as="sourcePoint" />
            <mxPoint x="1245" y="725" as="targetPoint" />
          </mxGeometry>
        </mxCell>
        <mxCell id="1o4sWq2RBQfBLqTfchI7-92" value="" style="endArrow=none;html=1;rounded=0;exitX=0.5;exitY=0;exitDx=0;exitDy=0;entryX=0.5;entryY=1;entryDx=0;entryDy=0;" edge="1" parent="1" source="1o4sWq2RBQfBLqTfchI7-86" target="1o4sWq2RBQfBLqTfchI7-77">
          <mxGeometry width="50" height="50" relative="1" as="geometry">
            <mxPoint x="1293" y="822" as="sourcePoint" />
            <mxPoint x="1245" y="770" as="targetPoint" />
          </mxGeometry>
        </mxCell>
        <mxCell id="1o4sWq2RBQfBLqTfchI7-93" value="" style="endArrow=none;html=1;rounded=0;exitX=0.962;exitY=0.274;exitDx=0;exitDy=0;entryX=0.157;entryY=1.059;entryDx=0;entryDy=0;exitPerimeter=0;entryPerimeter=0;" edge="1" parent="1" source="1o4sWq2RBQfBLqTfchI7-87" target="1o4sWq2RBQfBLqTfchI7-77">
          <mxGeometry width="50" height="50" relative="1" as="geometry">
            <mxPoint x="1185" y="860" as="sourcePoint" />
            <mxPoint x="1185" y="770" as="targetPoint" />
          </mxGeometry>
        </mxCell>
        <mxCell id="1o4sWq2RBQfBLqTfchI7-94" value="" style="endArrow=none;html=1;rounded=0;exitX=1;exitY=0.5;exitDx=0;exitDy=0;entryX=0;entryY=0.5;entryDx=0;entryDy=0;" edge="1" parent="1" source="1o4sWq2RBQfBLqTfchI7-88" target="1o4sWq2RBQfBLqTfchI7-77">
          <mxGeometry width="50" height="50" relative="1" as="geometry">
            <mxPoint x="1100" y="827" as="sourcePoint" />
            <mxPoint x="1144" y="774" as="targetPoint" />
          </mxGeometry>
        </mxCell>
        <mxCell id="1o4sWq2RBQfBLqTfchI7-95" value="" style="endArrow=none;html=1;rounded=0;exitX=1;exitY=1;exitDx=0;exitDy=0;entryX=0;entryY=0;entryDx=0;entryDy=0;" edge="1" parent="1" source="1o4sWq2RBQfBLqTfchI7-82" target="1o4sWq2RBQfBLqTfchI7-77">
          <mxGeometry width="50" height="50" relative="1" as="geometry">
            <mxPoint x="1050" y="720" as="sourcePoint" />
            <mxPoint x="1125" y="740" as="targetPoint" />
          </mxGeometry>
        </mxCell>
        <mxCell id="1o4sWq2RBQfBLqTfchI7-97" value="AdministratorID&amp;nbsp;" style="ellipse;whiteSpace=wrap;html=1;" vertex="1" parent="1">
          <mxGeometry x="20" y="680" width="120" height="80" as="geometry" />
        </mxCell>
        <mxCell id="1o4sWq2RBQfBLqTfchI7-98" value="Name" style="ellipse;whiteSpace=wrap;html=1;" vertex="1" parent="1">
          <mxGeometry x="400" y="670" width="120" height="80" as="geometry" />
        </mxCell>
        <mxCell id="1o4sWq2RBQfBLqTfchI7-99" value="Contact Details" style="ellipse;whiteSpace=wrap;html=1;" vertex="1" parent="1">
          <mxGeometry x="190" y="530" width="120" height="80" as="geometry" />
        </mxCell>
        <mxCell id="1o4sWq2RBQfBLqTfchI7-100" value="&lt;u&gt;QRCodeID&amp;nbsp;&lt;/u&gt;" style="ellipse;whiteSpace=wrap;html=1;" vertex="1" parent="1">
          <mxGeometry x="475" y="840" width="120" height="80" as="geometry" />
        </mxCell>
        <mxCell id="1o4sWq2RBQfBLqTfchI7-101" value="Code" style="ellipse;whiteSpace=wrap;html=1;" vertex="1" parent="1">
          <mxGeometry x="620" y="840" width="120" height="80" as="geometry" />
        </mxCell>
        <mxCell id="1o4sWq2RBQfBLqTfchI7-102" value="" style="endArrow=none;html=1;rounded=0;entryX=0.25;entryY=1;entryDx=0;entryDy=0;" edge="1" parent="1" source="1o4sWq2RBQfBLqTfchI7-100" target="1o4sWq2RBQfBLqTfchI7-79">
          <mxGeometry width="50" height="50" relative="1" as="geometry">
            <mxPoint x="920" y="1305" as="sourcePoint" />
            <mxPoint x="870" y="1310" as="targetPoint" />
          </mxGeometry>
        </mxCell>
        <mxCell id="1o4sWq2RBQfBLqTfchI7-103" value="" style="endArrow=none;html=1;rounded=0;exitX=0.367;exitY=-0.026;exitDx=0;exitDy=0;entryX=0.75;entryY=1;entryDx=0;entryDy=0;exitPerimeter=0;" edge="1" parent="1" source="1o4sWq2RBQfBLqTfchI7-101" target="1o4sWq2RBQfBLqTfchI7-79">
          <mxGeometry width="50" height="50" relative="1" as="geometry">
            <mxPoint x="1380" y="1375" as="sourcePoint" />
            <mxPoint x="1270" y="1455" as="targetPoint" />
          </mxGeometry>
        </mxCell>
        <mxCell id="1o4sWq2RBQfBLqTfchI7-104" value="" style="endArrow=none;html=1;rounded=0;exitX=0.5;exitY=1;exitDx=0;exitDy=0;entryX=0.5;entryY=0;entryDx=0;entryDy=0;" edge="1" parent="1" source="1o4sWq2RBQfBLqTfchI7-99" target="1o4sWq2RBQfBLqTfchI7-78">
          <mxGeometry width="50" height="50" relative="1" as="geometry">
            <mxPoint x="206.5" y="1606" as="sourcePoint" />
            <mxPoint x="77.5" y="1585" as="targetPoint" />
          </mxGeometry>
        </mxCell>
        <mxCell id="1o4sWq2RBQfBLqTfchI7-105" value="" style="endArrow=none;html=1;rounded=0;exitX=0.02;exitY=0.6;exitDx=0;exitDy=0;entryX=1;entryY=0.5;entryDx=0;entryDy=0;exitPerimeter=0;" edge="1" parent="1" source="1o4sWq2RBQfBLqTfchI7-98" target="1o4sWq2RBQfBLqTfchI7-78">
          <mxGeometry width="50" height="50" relative="1" as="geometry">
            <mxPoint x="342.5" y="1016" as="sourcePoint" />
            <mxPoint x="307.5" y="965" as="targetPoint" />
          </mxGeometry>
        </mxCell>
        <mxCell id="1o4sWq2RBQfBLqTfchI7-106" value="" style="endArrow=none;html=1;rounded=0;exitX=1;exitY=0.5;exitDx=0;exitDy=0;entryX=0;entryY=0.5;entryDx=0;entryDy=0;" edge="1" parent="1" source="1o4sWq2RBQfBLqTfchI7-97" target="1o4sWq2RBQfBLqTfchI7-78">
          <mxGeometry width="50" height="50" relative="1" as="geometry">
            <mxPoint x="401.5" y="944" as="sourcePoint" />
            <mxPoint x="307.5" y="935" as="targetPoint" />
          </mxGeometry>
        </mxCell>
        <mxCell id="1o4sWq2RBQfBLqTfchI7-110" value="associated" style="rhombus;whiteSpace=wrap;html=1;" vertex="1" parent="1">
          <mxGeometry x="805" y="240" width="80" height="80" as="geometry" />
        </mxCell>
        <mxCell id="1o4sWq2RBQfBLqTfchI7-111" value="" style="endArrow=none;html=1;rounded=0;entryX=-0.017;entryY=0.671;entryDx=0;entryDy=0;exitX=1;exitY=0.5;exitDx=0;exitDy=0;entryPerimeter=0;" edge="1" parent="1" source="1o4sWq2RBQfBLqTfchI7-110" target="1o4sWq2RBQfBLqTfchI7-2">
          <mxGeometry width="50" height="50" relative="1" as="geometry">
            <mxPoint x="670" y="270" as="sourcePoint" />
            <mxPoint x="900" y="280" as="targetPoint" />
          </mxGeometry>
        </mxCell>
        <mxCell id="1o4sWq2RBQfBLqTfchI7-112" value="" style="endArrow=none;html=1;rounded=0;entryX=0;entryY=0.5;entryDx=0;entryDy=0;exitX=1;exitY=0.5;exitDx=0;exitDy=0;" edge="1" parent="1" target="1o4sWq2RBQfBLqTfchI7-110">
          <mxGeometry width="50" height="50" relative="1" as="geometry">
            <mxPoint x="670" y="280" as="sourcePoint" />
            <mxPoint x="708" y="118" as="targetPoint" />
          </mxGeometry>
        </mxCell>
        <mxCell id="1o4sWq2RBQfBLqTfchI7-113" value="0..N" style="edgeLabel;html=1;align=center;verticalAlign=middle;resizable=0;points=[];" connectable="0" vertex="1" parent="1o4sWq2RBQfBLqTfchI7-112">
          <mxGeometry x="-0.6608" y="5" relative="1" as="geometry">
            <mxPoint x="-13" y="-5" as="offset" />
          </mxGeometry>
        </mxCell>
        <mxCell id="1o4sWq2RBQfBLqTfchI7-114" value="1" style="edgeLabel;html=1;align=center;verticalAlign=middle;resizable=0;points=[];" connectable="0" vertex="1" parent="1o4sWq2RBQfBLqTfchI7-112">
          <mxGeometry x="-0.6608" y="5" relative="1" as="geometry">
            <mxPoint x="277" y="-5" as="offset" />
          </mxGeometry>
        </mxCell>
        <mxCell id="1o4sWq2RBQfBLqTfchI7-115" value="associated" style="rhombus;whiteSpace=wrap;html=1;" vertex="1" parent="1">
          <mxGeometry x="580" y="520" width="80" height="80" as="geometry" />
        </mxCell>
        <mxCell id="1o4sWq2RBQfBLqTfchI7-116" value="" style="endArrow=none;html=1;rounded=0;exitX=0.576;exitY=-0.036;exitDx=0;exitDy=0;exitPerimeter=0;entryX=0.5;entryY=1;entryDx=0;entryDy=0;" edge="1" parent="1" source="1o4sWq2RBQfBLqTfchI7-79" target="1o4sWq2RBQfBLqTfchI7-115">
          <mxGeometry width="50" height="50" relative="1" as="geometry">
            <mxPoint x="619.1199999999999" y="689.1900000000002" as="sourcePoint" />
            <mxPoint x="620" y="620" as="targetPoint" />
          </mxGeometry>
        </mxCell>
        <mxCell id="1o4sWq2RBQfBLqTfchI7-117" value="1" style="edgeLabel;html=1;align=center;verticalAlign=middle;resizable=0;points=[];" connectable="0" vertex="1" parent="1o4sWq2RBQfBLqTfchI7-116">
          <mxGeometry x="-0.6608" y="5" relative="1" as="geometry">
            <mxPoint x="-5" y="12" as="offset" />
          </mxGeometry>
        </mxCell>
        <mxCell id="1o4sWq2RBQfBLqTfchI7-118" value="1" style="edgeLabel;html=1;align=center;verticalAlign=middle;resizable=0;points=[];" connectable="0" vertex="1" parent="1o4sWq2RBQfBLqTfchI7-116">
          <mxGeometry x="-0.6608" y="5" relative="1" as="geometry">
            <mxPoint x="5" y="-351" as="offset" />
          </mxGeometry>
        </mxCell>
        <mxCell id="1o4sWq2RBQfBLqTfchI7-119" value="" style="endArrow=none;html=1;rounded=0;entryX=0.554;entryY=1.031;entryDx=0;entryDy=0;exitX=0.5;exitY=0;exitDx=0;exitDy=0;entryPerimeter=0;" edge="1" parent="1" source="1o4sWq2RBQfBLqTfchI7-115" target="1o4sWq2RBQfBLqTfchI7-4">
          <mxGeometry width="50" height="50" relative="1" as="geometry">
            <mxPoint x="420" y="680" as="sourcePoint" />
            <mxPoint x="728" y="690" as="targetPoint" />
          </mxGeometry>
        </mxCell>
        <mxCell id="1o4sWq2RBQfBLqTfchI7-122" value="Have" style="rhombus;whiteSpace=wrap;html=1;" vertex="1" parent="1">
          <mxGeometry x="580" y="10" width="80" height="80" as="geometry" />
        </mxCell>
        <mxCell id="1o4sWq2RBQfBLqTfchI7-123" value="" style="endArrow=none;html=1;rounded=0;entryX=0.407;entryY=1.055;entryDx=0;entryDy=0;exitX=0.5;exitY=0;exitDx=0;exitDy=0;entryPerimeter=0;" edge="1" parent="1" source="1o4sWq2RBQfBLqTfchI7-122" target="1o4sWq2RBQfBLqTfchI7-5">
          <mxGeometry width="50" height="50" relative="1" as="geometry">
            <mxPoint x="432.5" y="210" as="sourcePoint" />
            <mxPoint x="628.5" y="-158" as="targetPoint" />
          </mxGeometry>
        </mxCell>
        <mxCell id="1o4sWq2RBQfBLqTfchI7-124" value="" style="endArrow=none;html=1;rounded=0;entryX=0.5;entryY=1;entryDx=0;entryDy=0;exitX=0.59;exitY=0.009;exitDx=0;exitDy=0;exitPerimeter=0;" edge="1" parent="1" source="1o4sWq2RBQfBLqTfchI7-4" target="1o4sWq2RBQfBLqTfchI7-122">
          <mxGeometry width="50" height="50" relative="1" as="geometry">
            <mxPoint x="620" y="240" as="sourcePoint" />
            <mxPoint x="632.5" y="150" as="targetPoint" />
          </mxGeometry>
        </mxCell>
        <mxCell id="1o4sWq2RBQfBLqTfchI7-125" value="0..N" style="edgeLabel;html=1;align=center;verticalAlign=middle;resizable=0;points=[];" connectable="0" vertex="1" parent="1o4sWq2RBQfBLqTfchI7-124">
          <mxGeometry x="-0.6608" y="5" relative="1" as="geometry">
            <mxPoint x="-16" y="12" as="offset" />
          </mxGeometry>
        </mxCell>
        <mxCell id="1o4sWq2RBQfBLqTfchI7-126" value="1" style="edgeLabel;html=1;align=center;verticalAlign=middle;resizable=0;points=[];" connectable="0" vertex="1" parent="1o4sWq2RBQfBLqTfchI7-124">
          <mxGeometry x="-0.6608" y="5" relative="1" as="geometry">
            <mxPoint x="14" y="-357" as="offset" />
          </mxGeometry>
        </mxCell>
        <mxCell id="1o4sWq2RBQfBLqTfchI7-127" value="" style="endArrow=none;html=1;rounded=0;entryX=0.5;entryY=1;entryDx=0;entryDy=0;" edge="1" parent="1" target="1o4sWq2RBQfBLqTfchI7-130">
          <mxGeometry width="50" height="50" relative="1" as="geometry">
            <mxPoint x="1070" y="690" as="sourcePoint" />
            <mxPoint x="1070" y="602" as="targetPoint" />
          </mxGeometry>
        </mxCell>
        <mxCell id="1o4sWq2RBQfBLqTfchI7-128" value="1" style="edgeLabel;html=1;align=center;verticalAlign=middle;resizable=0;points=[];" connectable="0" vertex="1" parent="1o4sWq2RBQfBLqTfchI7-127">
          <mxGeometry x="-0.6608" y="5" relative="1" as="geometry">
            <mxPoint x="-5" y="12" as="offset" />
          </mxGeometry>
        </mxCell>
        <mxCell id="1o4sWq2RBQfBLqTfchI7-129" value="0..N" style="edgeLabel;html=1;align=center;verticalAlign=middle;resizable=0;points=[];" connectable="0" vertex="1" parent="1o4sWq2RBQfBLqTfchI7-127">
          <mxGeometry x="-0.6608" y="5" relative="1" as="geometry">
            <mxPoint x="15" y="-362" as="offset" />
          </mxGeometry>
        </mxCell>
        <mxCell id="1o4sWq2RBQfBLqTfchI7-130" value="Have" style="rhombus;whiteSpace=wrap;html=1;" vertex="1" parent="1">
          <mxGeometry x="1030" y="502" width="80" height="80" as="geometry" />
        </mxCell>
        <mxCell id="1o4sWq2RBQfBLqTfchI7-131" value="" style="endArrow=none;html=1;rounded=0;entryX=0.75;entryY=1;entryDx=0;entryDy=0;exitX=0.5;exitY=0;exitDx=0;exitDy=0;" edge="1" parent="1" source="1o4sWq2RBQfBLqTfchI7-130" target="1o4sWq2RBQfBLqTfchI7-2">
          <mxGeometry width="50" height="50" relative="1" as="geometry">
            <mxPoint x="870" y="662" as="sourcePoint" />
            <mxPoint x="1066" y="294" as="targetPoint" />
          </mxGeometry>
        </mxCell>
        <mxCell id="1o4sWq2RBQfBLqTfchI7-135" value="" style="endArrow=none;html=1;rounded=0;exitX=0.5;exitY=1;exitDx=0;exitDy=0;entryX=0.5;entryY=0;entryDx=0;entryDy=0;" edge="1" parent="1" source="1o4sWq2RBQfBLqTfchI7-78" target="1o4sWq2RBQfBLqTfchI7-138">
          <mxGeometry width="50" height="50" relative="1" as="geometry">
            <mxPoint x="259" y="938" as="sourcePoint" />
            <mxPoint x="260" y="850" as="targetPoint" />
          </mxGeometry>
        </mxCell>
        <mxCell id="1o4sWq2RBQfBLqTfchI7-136" value="1" style="edgeLabel;html=1;align=center;verticalAlign=middle;resizable=0;points=[];" connectable="0" vertex="1" parent="1o4sWq2RBQfBLqTfchI7-135">
          <mxGeometry x="-0.6608" y="5" relative="1" as="geometry">
            <mxPoint x="5" y="-14" as="offset" />
          </mxGeometry>
        </mxCell>
        <mxCell id="1o4sWq2RBQfBLqTfchI7-137" value="0..N" style="edgeLabel;html=1;align=center;verticalAlign=middle;resizable=0;points=[];" connectable="0" vertex="1" parent="1o4sWq2RBQfBLqTfchI7-135">
          <mxGeometry x="-0.6608" y="5" relative="1" as="geometry">
            <mxPoint x="15" y="316" as="offset" />
          </mxGeometry>
        </mxCell>
        <mxCell id="1o4sWq2RBQfBLqTfchI7-138" value="Varify" style="rhombus;whiteSpace=wrap;html=1;" vertex="1" parent="1">
          <mxGeometry x="210" y="870" width="80" height="80" as="geometry" />
        </mxCell>
        <mxCell id="1o4sWq2RBQfBLqTfchI7-139" value="" style="endArrow=none;html=1;rounded=0;exitX=0.5;exitY=1;exitDx=0;exitDy=0;entryX=0.5;entryY=0;entryDx=0;entryDy=0;" edge="1" parent="1" source="1o4sWq2RBQfBLqTfchI7-138" target="1o4sWq2RBQfBLqTfchI7-3">
          <mxGeometry width="50" height="50" relative="1" as="geometry">
            <mxPoint x="259" y="750" as="sourcePoint" />
            <mxPoint x="238" y="710" as="targetPoint" />
            <Array as="points">
              <mxPoint x="250" y="970" />
            </Array>
          </mxGeometry>
        </mxCell>
        <mxCell id="AWIjT3ahAacqeMMOmSSD-1" value="Shedule" style="rounded=0;whiteSpace=wrap;html=1;" vertex="1" parent="1">
          <mxGeometry x="765" y="1090" width="120" height="60" as="geometry" />
        </mxCell>
        <mxCell id="AWIjT3ahAacqeMMOmSSD-2" value="&lt;u&gt;Schedule ID&lt;/u&gt;" style="ellipse;whiteSpace=wrap;html=1;" vertex="1" parent="1">
          <mxGeometry x="765" y="930" width="120" height="80" as="geometry" />
        </mxCell>
        <mxCell id="AWIjT3ahAacqeMMOmSSD-3" value="Route" style="ellipse;whiteSpace=wrap;html=1;" vertex="1" parent="1">
          <mxGeometry x="975" y="1020" width="120" height="80" as="geometry" />
        </mxCell>
        <mxCell id="AWIjT3ahAacqeMMOmSSD-4" value="Status" style="ellipse;whiteSpace=wrap;html=1;" vertex="1" parent="1">
          <mxGeometry x="960" y="1180" width="120" height="80" as="geometry" />
        </mxCell>
        <mxCell id="AWIjT3ahAacqeMMOmSSD-5" value="Assigned Sheduler" style="ellipse;whiteSpace=wrap;html=1;" vertex="1" parent="1">
          <mxGeometry x="765" y="1260" width="120" height="80" as="geometry" />
        </mxCell>
        <mxCell id="AWIjT3ahAacqeMMOmSSD-6" value="rotation pattern" style="ellipse;whiteSpace=wrap;html=1;" vertex="1" parent="1">
          <mxGeometry x="590" y="1230" width="120" height="80" as="geometry" />
        </mxCell>
        <mxCell id="AWIjT3ahAacqeMMOmSSD-7" value="" style="endArrow=none;html=1;rounded=0;entryX=0;entryY=1;entryDx=0;entryDy=0;exitX=1;exitY=0;exitDx=0;exitDy=0;" edge="1" parent="1" source="AWIjT3ahAacqeMMOmSSD-6" target="AWIjT3ahAacqeMMOmSSD-1">
          <mxGeometry width="50" height="50" relative="1" as="geometry">
            <mxPoint x="690" y="1150" as="sourcePoint" />
            <mxPoint x="760" y="1170" as="targetPoint" />
          </mxGeometry>
        </mxCell>
        <mxCell id="AWIjT3ahAacqeMMOmSSD-8" value="" style="endArrow=none;html=1;rounded=0;entryX=0.5;entryY=0;entryDx=0;entryDy=0;exitX=0.5;exitY=1;exitDx=0;exitDy=0;" edge="1" parent="1" source="AWIjT3ahAacqeMMOmSSD-2" target="AWIjT3ahAacqeMMOmSSD-1">
          <mxGeometry width="50" height="50" relative="1" as="geometry">
            <mxPoint x="690" y="1160" as="sourcePoint" />
            <mxPoint x="770" y="1180" as="targetPoint" />
          </mxGeometry>
        </mxCell>
        <mxCell id="AWIjT3ahAacqeMMOmSSD-9" value="" style="endArrow=none;html=1;rounded=0;entryX=1;entryY=0;entryDx=0;entryDy=0;exitX=0;exitY=0.625;exitDx=0;exitDy=0;exitPerimeter=0;" edge="1" parent="1" source="AWIjT3ahAacqeMMOmSSD-3" target="AWIjT3ahAacqeMMOmSSD-1">
          <mxGeometry width="50" height="50" relative="1" as="geometry">
            <mxPoint x="835" y="1080" as="sourcePoint" />
            <mxPoint x="835" y="1180" as="targetPoint" />
          </mxGeometry>
        </mxCell>
        <mxCell id="AWIjT3ahAacqeMMOmSSD-10" value="" style="endArrow=none;html=1;rounded=0;entryX=1;entryY=1;entryDx=0;entryDy=0;exitX=0.333;exitY=0;exitDx=0;exitDy=0;exitPerimeter=0;" edge="1" parent="1" source="AWIjT3ahAacqeMMOmSSD-4" target="AWIjT3ahAacqeMMOmSSD-1">
          <mxGeometry width="50" height="50" relative="1" as="geometry">
            <mxPoint x="1000" y="1150" as="sourcePoint" />
            <mxPoint x="895" y="1180" as="targetPoint" />
          </mxGeometry>
        </mxCell>
        <mxCell id="AWIjT3ahAacqeMMOmSSD-11" value="" style="endArrow=none;html=1;rounded=0;entryX=0.5;entryY=1;entryDx=0;entryDy=0;exitX=0.5;exitY=0;exitDx=0;exitDy=0;" edge="1" parent="1" source="AWIjT3ahAacqeMMOmSSD-5" target="AWIjT3ahAacqeMMOmSSD-1">
          <mxGeometry width="50" height="50" relative="1" as="geometry">
            <mxPoint x="697" y="1342" as="sourcePoint" />
            <mxPoint x="895" y="1240" as="targetPoint" />
          </mxGeometry>
        </mxCell>
        <mxCell id="AWIjT3ahAacqeMMOmSSD-12" value="Edits" style="rhombus;whiteSpace=wrap;html=1;" vertex="1" parent="1">
          <mxGeometry x="520" y="1080" width="80" height="80" as="geometry" />
        </mxCell>
        <mxCell id="AWIjT3ahAacqeMMOmSSD-13" value="" style="endArrow=none;html=1;rounded=0;exitX=0.998;exitY=0.821;exitDx=0;exitDy=0;entryX=0;entryY=0.5;entryDx=0;entryDy=0;exitPerimeter=0;" edge="1" parent="1" source="1o4sWq2RBQfBLqTfchI7-3" target="AWIjT3ahAacqeMMOmSSD-12">
          <mxGeometry width="50" height="50" relative="1" as="geometry">
            <mxPoint x="260" y="910" as="sourcePoint" />
            <mxPoint x="260" y="1040" as="targetPoint" />
            <Array as="points" />
          </mxGeometry>
        </mxCell>
        <mxCell id="AWIjT3ahAacqeMMOmSSD-14" value="" style="endArrow=none;html=1;rounded=0;exitX=1;exitY=0.5;exitDx=0;exitDy=0;entryX=0;entryY=0.5;entryDx=0;entryDy=0;" edge="1" parent="1" source="AWIjT3ahAacqeMMOmSSD-12" target="AWIjT3ahAacqeMMOmSSD-1">
          <mxGeometry width="50" height="50" relative="1" as="geometry">
            <mxPoint x="320" y="1100" as="sourcePoint" />
            <mxPoint x="530" y="1170" as="targetPoint" />
            <Array as="points" />
          </mxGeometry>
        </mxCell>
        <mxCell id="AWIjT3ahAacqeMMOmSSD-15" value="1" style="text;html=1;align=center;verticalAlign=middle;resizable=0;points=[];autosize=1;strokeColor=none;fillColor=none;" vertex="1" parent="1">
          <mxGeometry x="315" y="1098" width="30" height="30" as="geometry" />
        </mxCell>
        <mxCell id="AWIjT3ahAacqeMMOmSSD-16" value="1..N" style="text;html=1;align=center;verticalAlign=middle;resizable=0;points=[];autosize=1;strokeColor=none;fillColor=none;" vertex="1" parent="1">
          <mxGeometry x="715" y="1090" width="50" height="30" as="geometry" />
        </mxCell>
        <mxCell id="AWIjT3ahAacqeMMOmSSD-17" value="" style="endArrow=none;dashed=1;html=1;rounded=0;" edge="1" parent="1">
          <mxGeometry width="50" height="50" relative="1" as="geometry">
            <mxPoint x="710" y="100" as="sourcePoint" />
            <mxPoint x="790" y="99" as="targetPoint" />
            <Array as="points" />
          </mxGeometry>
        </mxCell>
        <mxCell id="AWIjT3ahAacqeMMOmSSD-18" value="" style="endArrow=none;dashed=1;html=1;rounded=0;" edge="1" parent="1">
          <mxGeometry width="50" height="50" relative="1" as="geometry">
            <mxPoint x="480" y="88" as="sourcePoint" />
            <mxPoint x="520" y="88" as="targetPoint" />
            <Array as="points" />
          </mxGeometry>
        </mxCell>
        <mxCell id="AWIjT3ahAacqeMMOmSSD-19" value="" style="endArrow=none;dashed=1;html=1;rounded=0;" edge="1" parent="1">
          <mxGeometry width="50" height="50" relative="1" as="geometry">
            <mxPoint x="820" y="408" as="sourcePoint" />
            <mxPoint x="762" y="408" as="targetPoint" />
            <Array as="points" />
          </mxGeometry>
        </mxCell>
      </root>
    </mxGraphModel>
  </diagram>
</mxfile>
